<svg width="190" height="39" viewBox="0 0 190 39" fill="none" xmlns="http://www.w3.org/2000/svg">
<path d="M19.5 37.7812C24.3469 37.7759 28.9937 35.8482 32.421 32.4209C35.8482 28.9937 37.776 24.3468 37.7812 19.5C37.7812 19.1767 37.6528 18.8667 37.4243 18.6382C37.1957 18.4096 36.8857 18.2812 36.5625 18.2812C33.3457 18.2849 30.1867 19.1374 27.4048 20.7527C24.623 22.3679 22.3166 24.6888 20.7188 27.4807V20.6468C23.3984 20.3445 25.8731 19.0668 27.6712 17.0572C29.4693 15.0476 30.4651 12.4466 30.4688 9.74997V2.43747C30.4664 2.23062 30.4118 2.02772 30.31 1.84762C30.2082 1.66752 30.0626 1.51606 29.8866 1.4073C29.7106 1.29855 29.51 1.23602 29.3034 1.22553C29.0968 1.21504 28.8909 1.25693 28.7049 1.3473L19.5 5.94967L10.2951 1.3473C10.1091 1.25689 9.90316 1.21498 9.69655 1.22545C9.48993 1.23593 9.28932 1.29845 9.11334 1.40721C8.93736 1.51598 8.79172 1.66745 8.68995 1.84757C8.58819 2.02769 8.5336 2.23061 8.53125 2.43747V9.74997C8.53491 12.4466 9.53069 15.0476 11.3288 17.0572C13.1269 19.0668 15.6016 20.3445 18.2812 20.6468V27.481C16.6834 24.689 14.3771 22.3681 11.5952 20.7528C8.81329 19.1374 5.65437 18.2849 2.4375 18.2812C2.11427 18.2812 1.80427 18.4096 1.57571 18.6382C1.34715 18.8667 1.21875 19.1767 1.21875 19.5C1.22414 24.3468 3.15192 28.9936 6.57915 32.4208C10.0064 35.8481 14.6532 37.7758 19.5 37.7812V37.7812ZM35.2938 20.7687C34.9872 24.5186 33.3584 28.0376 30.698 30.698C28.0376 33.3584 24.5186 34.9872 20.7687 35.2938C21.0753 31.5439 22.7041 28.0249 25.3645 25.3644C28.0249 22.704 31.5439 21.0753 35.2938 20.7687V20.7687ZM10.9688 9.74997V4.40965L18.9549 8.40265C19.1241 8.48722 19.3108 8.53125 19.5 8.53125C19.6892 8.53125 19.8759 8.48722 20.0451 8.40265L28.0312 4.40965V9.74997C27.63 21.0419 11.3673 21.0372 10.9688 9.74997ZM18.2307 35.2938C14.4809 34.9871 10.9621 33.3583 8.30187 30.6979C5.64167 28.0375 4.01314 24.5185 3.70683 20.7687C7.45657 21.0753 10.9754 22.7041 13.6356 25.3646C16.2958 28.025 17.9244 31.544 18.2307 35.2938Z" fill="black"/>
<path d="M63.804 18.288H56.316V27.44H54.08V8.408H63.804V10.618H56.316V16.078H63.804V18.288ZM72.3931 13.478L71.2751 15.298C70.9805 15.142 70.6945 15.064 70.4171 15.064C69.8798 15.064 69.3945 15.3327 68.9611 15.87C68.5278 16.39 68.1985 17.0833 67.9731 17.95C67.7651 18.7993 67.6611 20.342 67.6611 22.578V27.44H65.4771V13.27H67.6611V14.804C68.0945 14.1627 68.5278 13.686 68.9611 13.374C69.4118 13.062 69.9145 12.906 70.4691 12.906C71.0411 12.906 71.6825 13.0967 72.3931 13.478ZM88.1955 20.732H75.7675C75.8541 22.292 76.3741 23.5487 77.3275 24.502C78.2981 25.438 79.4508 25.906 80.7855 25.906C83.0561 25.906 84.7895 24.788 85.9855 22.552L87.8055 23.488C86.9908 24.996 86.0288 26.114 84.9195 26.842C83.8101 27.5527 82.4841 27.908 80.9415 27.908C78.8095 27.908 77.0501 27.18 75.6635 25.724C74.2768 24.2507 73.5835 22.4827 73.5835 20.42C73.5835 18.3573 74.2768 16.5893 75.6635 15.116C77.0675 13.6427 78.8008 12.906 80.8635 12.906C82.9261 12.906 84.6508 13.608 86.0375 15.012C87.4241 16.3987 88.1435 18.3053 88.1955 20.732ZM85.8035 18.834C85.5435 17.6207 84.9541 16.676 84.0355 16C83.1168 15.324 82.0595 14.986 80.8635 14.986C78.4368 14.986 76.8248 16.2687 76.0275 18.834H85.8035ZM105.106 20.732H92.6776C92.7643 22.292 93.2843 23.5487 94.2376 24.502C95.2083 25.438 96.3609 25.906 97.6956 25.906C99.9663 25.906 101.7 24.788 102.896 22.552L104.716 23.488C103.901 24.996 102.939 26.114 101.83 26.842C100.72 27.5527 99.3943 27.908 97.8516 27.908C95.7196 27.908 93.9603 27.18 92.5736 25.724C91.1869 24.2507 90.4936 22.4827 90.4936 20.42C90.4936 18.3573 91.1869 16.5893 92.5736 15.116C93.9776 13.6427 95.7109 12.906 97.7736 12.906C99.8363 12.906 101.561 13.608 102.948 15.012C104.334 16.3987 105.054 18.3053 105.106 20.732ZM102.714 18.834C102.454 17.6207 101.864 16.676 100.946 16C100.027 15.324 98.9696 14.986 97.7736 14.986C95.3469 14.986 93.7349 16.2687 92.9376 18.834H102.714ZM109.926 27.44H107.794V7.94H109.926V27.44ZM127.221 20.732H114.793C114.88 22.292 115.4 23.5487 116.353 24.502C117.324 25.438 118.476 25.906 119.811 25.906C122.082 25.906 123.815 24.788 125.011 22.552L126.831 23.488C126.016 24.996 125.054 26.114 123.945 26.842C122.836 27.5527 121.51 27.908 119.967 27.908C117.835 27.908 116.076 27.18 114.689 25.724C113.302 24.2507 112.609 22.4827 112.609 20.42C112.609 18.3573 113.302 16.5893 114.689 15.116C116.093 13.6427 117.826 12.906 119.889 12.906C121.952 12.906 123.676 13.608 125.063 15.012C126.45 16.3987 127.169 18.3053 127.221 20.732ZM124.829 18.834C124.569 17.6207 123.98 16.676 123.061 16C122.142 15.324 121.085 14.986 119.889 14.986C117.462 14.986 115.85 16.2687 115.053 18.834H124.829ZM142.597 27.44H140.465V20.68C140.465 19.12 140.387 18.0627 140.231 17.508C140.092 16.936 139.876 16.4593 139.581 16.078C139.304 15.6793 138.94 15.3847 138.489 15.194C138.056 15.0033 137.518 14.908 136.877 14.908C136.253 14.908 135.638 15.064 135.031 15.376C134.424 15.688 133.904 16.1213 133.471 16.676C133.038 17.2307 132.734 17.82 132.561 18.444C132.405 19.068 132.327 20.316 132.327 22.188V27.44H130.169V13.27H132.327V15.402C133.731 13.738 135.395 12.906 137.319 12.906C138.342 12.906 139.269 13.1747 140.101 13.712C140.933 14.232 141.557 14.96 141.973 15.896C142.389 16.8147 142.597 18.236 142.597 20.16V27.44ZM153.422 14.934L152.044 16.364C151.021 15.4107 150.085 14.934 149.236 14.934C148.699 14.934 148.248 15.1073 147.884 15.454C147.52 15.7833 147.338 16.1993 147.338 16.702C147.338 17.1873 147.537 17.6207 147.936 18.002C148.352 18.366 149.08 18.8253 150.12 19.38C151.16 19.9173 151.957 20.5153 152.512 21.174C153.084 21.8327 153.37 22.6387 153.37 23.592C153.37 24.8053 152.945 25.828 152.096 26.66C151.264 27.492 150.233 27.908 149.002 27.908C147.286 27.908 145.856 27.18 144.712 25.724L146.064 24.216C147 25.308 147.953 25.854 148.924 25.854C149.583 25.854 150.146 25.6373 150.614 25.204C151.082 24.7707 151.316 24.268 151.316 23.696C151.316 23.1067 151.099 22.6213 150.666 22.24C150.25 21.8413 149.522 21.382 148.482 20.862C147.459 20.342 146.679 19.77 146.142 19.146C145.622 18.5047 145.362 17.6727 145.362 16.65C145.362 15.61 145.735 14.726 146.48 13.998C147.243 13.27 148.239 12.906 149.47 12.906C150.718 12.906 152.035 13.582 153.422 14.934ZM170.08 20.732H157.652C157.739 22.292 158.259 23.5487 159.212 24.502C160.183 25.438 161.336 25.906 162.67 25.906C164.941 25.906 166.674 24.788 167.87 22.552L169.69 23.488C168.876 24.996 167.914 26.114 166.804 26.842C165.695 27.5527 164.369 27.908 162.826 27.908C160.694 27.908 158.935 27.18 157.548 25.724C156.162 24.2507 155.468 22.4827 155.468 20.42C155.468 18.3573 156.162 16.5893 157.548 15.116C158.952 13.6427 160.686 12.906 162.748 12.906C164.811 12.906 166.536 13.608 167.922 15.012C169.309 16.3987 170.028 18.3053 170.08 20.732ZM167.688 18.834C167.428 17.6207 166.839 16.676 165.92 16C165.002 15.324 163.944 14.986 162.748 14.986C160.322 14.986 158.71 16.2687 157.912 18.834H167.688ZM179.008 13.478L177.89 15.298C177.596 15.142 177.31 15.064 177.032 15.064C176.495 15.064 176.01 15.3327 175.576 15.87C175.143 16.39 174.814 17.0833 174.588 17.95C174.38 18.7993 174.276 20.342 174.276 22.578V27.44H172.092V13.27H174.276V14.804C174.71 14.1627 175.143 13.686 175.576 13.374C176.027 13.062 176.53 12.906 177.084 12.906C177.656 12.906 178.298 13.0967 179.008 13.478ZM188.233 14.934L186.855 16.364C185.832 15.4107 184.896 14.934 184.047 14.934C183.509 14.934 183.059 15.1073 182.695 15.454C182.331 15.7833 182.149 16.1993 182.149 16.702C182.149 17.1873 182.348 17.6207 182.747 18.002C183.163 18.366 183.891 18.8253 184.931 19.38C185.971 19.9173 186.768 20.5153 187.323 21.174C187.895 21.8327 188.181 22.6387 188.181 23.592C188.181 24.8053 187.756 25.828 186.907 26.66C186.075 27.492 185.043 27.908 183.813 27.908C182.097 27.908 180.667 27.18 179.523 25.724L180.875 24.216C181.811 25.308 182.764 25.854 183.735 25.854C184.393 25.854 184.957 25.6373 185.425 25.204C185.893 24.7707 186.127 24.268 186.127 23.696C186.127 23.1067 185.91 22.6213 185.477 22.24C185.061 21.8413 184.333 21.382 183.293 20.862C182.27 20.342 181.49 19.77 180.953 19.146C180.433 18.5047 180.173 17.6727 180.173 16.65C180.173 15.61 180.545 14.726 181.291 13.998C182.053 13.27 183.05 12.906 184.281 12.906C185.529 12.906 186.846 13.582 188.233 14.934Z" fill="black"/>
</svg>
