<svg width="16" height="15" viewBox="0 0 16 15" fill="none" xmlns="http://www.w3.org/2000/svg">
<path d="M4.77387 4.7738C4.24656 4.7738 3.81909 5.20126 3.81909 5.72858C3.81909 6.25591 4.24656 6.68336 4.77387 6.68336C5.3012 6.68336 5.72865 6.25591 5.72865 5.72858C5.72865 5.20126 5.3012 4.7738 4.77387 4.7738Z" fill="black"/>
<path d="M6.68344 5.72858C6.68344 5.20126 7.1109 4.7738 7.63822 4.7738C8.16555 4.7738 8.593 5.20126 8.593 5.72858C8.593 6.25591 8.16555 6.68336 7.63822 6.68336C7.1109 6.68336 6.68344 6.25591 6.68344 5.72858Z" fill="black"/>
<path d="M10.5026 4.7738C9.97525 4.7738 9.54779 5.20126 9.54779 5.72858C9.54779 6.25591 9.97525 6.68336 10.5026 6.68336C11.0299 6.68336 11.4573 6.25591 11.4573 5.72858C11.4573 5.20126 11.0299 4.7738 10.5026 4.7738Z" fill="black"/>
<path fill-rule="evenodd" clip-rule="evenodd" d="M2.38695 0C1.06868 0 0 1.06868 0 2.38695V9.0704C0 10.3887 1.06868 11.4574 2.38695 11.4574H2.39273L2.39717 13.6908C2.39756 13.886 2.51676 14.0613 2.69814 14.1334C2.87953 14.2055 3.08656 14.16 3.22091 14.0184L5.65029 11.4574H12.8895C14.2078 11.4574 15.2765 10.3887 15.2765 9.0704V2.38695C15.2765 1.06868 14.2078 0 12.8895 0H2.38695ZM0.95478 2.38695C0.95478 1.59599 1.59599 0.954779 2.38695 0.954779H12.8895C13.6805 0.954779 14.3217 1.59599 14.3217 2.38695V9.0704C14.3217 9.86139 13.6805 10.5026 12.8895 10.5026H5.44511C5.31411 10.5026 5.18889 10.5564 5.09876 10.6514L3.34958 12.4954L3.34656 10.979C3.34604 10.7157 3.13245 10.5026 2.86917 10.5026H2.38695C1.59599 10.5026 0.95478 9.86139 0.95478 9.0704V2.38695Z" fill="black"/>
</svg>
