<svg width="13" height="14" viewBox="0 0 13 14" fill="none" xmlns="http://www.w3.org/2000/svg">
<path fill-rule="evenodd" clip-rule="evenodd" d="M3.25983 0C3.13674 2.30703e-05 3.01867 0.0487589 2.93139 0.135561L0.135563 2.93139C0.0924173 2.97477 0.0582389 3.02622 0.0349793 3.08281C0.0117196 3.1394 -0.000165768 3.20002 1.74636e-06 3.2612V10.2485C1.74636e-06 11.0146 0.63178 11.6446 1.39792 11.6446H8.38522C9.15136 11.6446 9.78086 11.0146 9.78086 10.2485V1.39746C9.78086 0.631335 9.15136 0 8.38522 0H3.25983ZM3.72565 0.931641H8.38522C8.65134 0.931641 8.85104 1.13135 8.85104 1.39746V10.2485C8.85104 10.5146 8.65134 10.7148 8.38522 10.7148H1.39792C1.1318 10.7148 0.931642 10.5146 0.931642 10.2485V3.72747H2.32774C3.09387 3.72747 3.72565 3.09569 3.72565 2.32956V0.931641ZM2.79356 1.59216V2.32956C2.79356 2.59568 2.59386 2.79538 2.32774 2.79538H1.59034L2.79356 1.59216ZM10.713 1.86374C10.6509 1.86237 10.5892 1.87341 10.5315 1.8962C10.4738 1.919 10.4212 1.95309 10.3769 1.99648C10.3325 2.03987 10.2973 2.09169 10.2732 2.14888C10.2492 2.20608 10.2368 2.26751 10.2368 2.32956C10.2368 2.39161 10.2492 2.45303 10.2732 2.51023C10.2973 2.56742 10.3325 2.61924 10.3769 2.66263C10.4212 2.70602 10.4738 2.74011 10.5315 2.76291C10.5892 2.7857 10.6509 2.79674 10.713 2.79538C10.9791 2.79538 11.1788 2.99509 11.1788 3.2612V12.5767C11.1788 12.8428 10.9791 13.0425 10.713 13.0425H3.25983C2.99371 13.0425 2.79356 12.8428 2.79356 12.5767C2.79764 12.5131 2.78864 12.4494 2.76712 12.3895C2.7456 12.3295 2.71202 12.2746 2.66845 12.2282C2.62488 12.1817 2.57225 12.1447 2.5138 12.1194C2.45536 12.0941 2.39234 12.081 2.32865 12.081C2.26496 12.081 2.20194 12.0941 2.1435 12.1194C2.08505 12.1447 2.03242 12.1817 1.98885 12.2282C1.94528 12.2746 1.91169 12.3295 1.89018 12.3895C1.86866 12.4494 1.85966 12.5131 1.86374 12.5767C1.86374 13.3428 2.4937 13.9746 3.25983 13.9746H10.713C11.4791 13.9746 12.1109 13.3428 12.1109 12.5767V3.2612C12.1109 2.49506 11.4791 1.86374 10.713 1.86374ZM3.25983 5.58939C3.1381 5.59212 3.02228 5.6424 2.93715 5.72946C2.85202 5.81652 2.80436 5.93345 2.80436 6.05521C2.80436 6.17697 2.85202 6.2939 2.93715 6.38096C3.02228 6.46802 3.1381 6.5183 3.25983 6.52103H6.52149C6.58354 6.52242 6.64524 6.5114 6.70298 6.48862C6.76071 6.46584 6.81332 6.43175 6.85769 6.38835C6.90207 6.34496 6.93733 6.29314 6.96141 6.23593C6.98548 6.17872 6.99788 6.11728 6.99788 6.05521C6.99788 5.99314 6.98548 5.9317 6.96141 5.87449C6.93733 5.81728 6.90207 5.76546 6.85769 5.72206C6.81332 5.67867 6.76071 5.64458 6.70298 5.6218C6.64524 5.59901 6.58354 5.588 6.52149 5.58939H3.25983ZM3.25983 7.45312C3.1978 7.45176 3.13612 7.4628 3.0784 7.48559C3.02069 7.50839 2.96811 7.54248 2.92376 7.58587C2.8794 7.62926 2.84416 7.68108 2.8201 7.73827C2.79603 7.79547 2.78364 7.85689 2.78364 7.91895C2.78364 7.981 2.79603 8.04242 2.8201 8.09962C2.84416 8.15681 2.8794 8.20863 2.92376 8.25202C2.96811 8.29541 3.02069 8.3295 3.0784 8.3523C3.13612 8.37509 3.1978 8.38613 3.25983 8.38477H5.12357C5.18561 8.38613 5.24729 8.37509 5.305 8.3523C5.36271 8.3295 5.41529 8.29541 5.45965 8.25202C5.504 8.20863 5.53925 8.15681 5.56331 8.09962C5.58737 8.04242 5.59976 7.981 5.59976 7.91895C5.59976 7.85689 5.58737 7.79547 5.56331 7.73827C5.53925 7.68108 5.504 7.62926 5.45965 7.58587C5.41529 7.54248 5.36271 7.50839 5.305 7.48559C5.24729 7.4628 5.18561 7.45176 5.12357 7.45312H3.25983ZM6.52103 7.45312C6.26377 7.45312 6.05521 7.66168 6.05521 7.91895C6.05521 8.17621 6.26376 8.38477 6.52103 8.38477C6.7783 8.38477 6.98685 8.17621 6.98685 7.91895C6.98685 7.66168 6.7783 7.45312 6.52103 7.45312Z" fill="black"/>
</svg>
