<svg width="15" height="14" viewBox="0 0 15 14" fill="none" xmlns="http://www.w3.org/2000/svg">
<path d="M14.9246 5.99903C14.9246 5.91905 14.8809 5.83906 14.8591 5.75907C14.8255 5.61796 14.7817 5.47944 14.7282 5.34459C14.6919 5.25733 14.641 5.17007 14.5973 5.07554C14.5537 4.98101 14.4883 4.85739 14.4228 4.75559C14.3574 4.65379 14.2701 4.60289 14.2701 4.54472C14.2701 4.48654 14.1247 4.36293 14.0447 4.27567C13.9647 4.18841 13.892 4.13024 13.812 4.05752L13.543 3.81756L13.2812 3.64304C13.1784 3.58015 13.0715 3.52428 12.9612 3.47579L12.6776 3.3449C12.5589 3.30092 12.4374 3.26448 12.3141 3.23583C12.2163 3.20708 12.1167 3.18521 12.0159 3.17039H11.885C11.6049 2.29726 11.0569 1.53457 10.3187 0.990643C9.58047 0.446714 8.68966 0.149195 7.77275 0.14034C6.85583 0.131485 5.95944 0.411744 5.21087 0.941314C4.4623 1.47088 3.8996 2.22284 3.6027 3.0904H3.47181C3.37103 3.10523 3.2714 3.12709 3.17368 3.15584C3.0503 3.1845 2.92887 3.22093 2.8101 3.26492L2.5265 3.39581C2.41621 3.44429 2.30932 3.50016 2.20655 3.56305L1.94478 3.81756L1.67573 4.04298C1.59574 4.11569 1.51575 4.18114 1.44304 4.26112C1.37032 4.34111 1.29033 4.44291 1.21762 4.53017C1.1449 4.61743 1.08673 4.69742 1.02856 4.79195C0.970384 4.88648 0.912212 5.00283 0.854039 5.1119C0.795866 5.22097 0.759508 5.29369 0.72315 5.38095C0.669662 5.5158 0.62592 5.65432 0.592262 5.79543C0.592262 5.87542 0.541361 5.9554 0.526817 6.03539C0.481557 6.26296 0.457217 6.49419 0.454102 6.72619C0.45751 6.9482 0.479401 7.16953 0.519546 7.38791C0.519546 7.46062 0.555904 7.52607 0.570447 7.59878C0.606388 7.74164 0.650083 7.88243 0.701335 8.02053L0.788595 8.23141C0.852605 8.37163 0.925468 8.50764 1.00674 8.63862L1.10854 8.7986C1.11901 8.81897 1.13117 8.83843 1.1449 8.85677L1.18126 8.90767C1.51992 9.35922 1.95907 9.72572 2.46392 9.97814C2.96877 10.2306 3.52546 10.362 4.0899 10.362C4.09152 9.9769 4.24581 9.60818 4.51892 9.33669C4.7904 9.06358 5.15913 8.90929 5.54421 8.90767C5.80001 8.90526 6.05155 8.97318 6.27137 9.104V6.72619C6.27137 6.34048 6.42459 5.97057 6.69733 5.69783C6.97007 5.4251 7.33998 5.27187 7.72569 5.27187C8.1114 5.27187 8.48131 5.4251 8.75405 5.69783C9.02678 5.97057 9.18001 6.34048 9.18001 6.72619V9.17672C9.40095 9.04855 9.65174 8.98084 9.90717 8.98038C10.3011 8.98407 10.6776 9.14354 10.9543 9.42395C11.1991 9.67702 11.3438 10.0103 11.3615 10.362C11.9259 10.362 12.4826 10.2306 12.9875 9.97814C13.4923 9.72572 13.9315 9.35922 14.2701 8.90767L14.3065 8.87131C14.3202 8.85298 14.3324 8.83352 14.3428 8.81314L14.4446 8.65316C14.5259 8.52219 14.5988 8.38618 14.6628 8.24595L14.75 8.03508C14.8013 7.89697 14.845 7.75618 14.8809 7.61333C14.8809 7.54061 14.9173 7.47517 14.9318 7.40245C14.9728 7.1793 14.9947 6.95306 14.9973 6.72619C14.9964 6.48203 14.9721 6.23852 14.9246 5.99903Z" fill="black"/>
<path d="M9.4058 9.91065L8.45322 10.8269V6.72569C8.45322 6.53284 8.37661 6.34788 8.24024 6.21152C8.10387 6.07515 7.91892 5.99854 7.72606 5.99854C7.53321 5.99854 7.34825 6.07515 7.21188 6.21152C7.07552 6.34788 6.9989 6.53284 6.9989 6.72569V10.7905L6.06087 9.84521C5.99307 9.77741 5.91258 9.72362 5.824 9.68693C5.73541 9.65024 5.64047 9.63135 5.54459 9.63135C5.4487 9.63135 5.35376 9.65024 5.26518 9.68693C5.17659 9.72362 5.0961 9.77741 5.0283 9.84521C4.96051 9.91301 4.90672 9.99349 4.87003 10.0821C4.83334 10.1707 4.81445 10.2656 4.81445 10.3615C4.81445 10.4574 4.83334 10.5523 4.87003 10.6409C4.90672 10.7295 4.96051 10.81 5.0283 10.8778L7.20978 13.0592C7.27773 13.1266 7.35831 13.18 7.4469 13.2161C7.5355 13.2523 7.63036 13.2707 7.72606 13.2701C7.91328 13.2694 8.093 13.1964 8.2278 13.0665L10.4093 10.9578C10.4864 10.8941 10.5496 10.8152 10.5949 10.726C10.6402 10.6368 10.6666 10.5392 10.6724 10.4393C10.6782 10.3395 10.6634 10.2395 10.6288 10.1456C10.5943 10.0517 10.5407 9.96599 10.4715 9.89377C10.4023 9.82154 10.3189 9.76438 10.2266 9.72584C10.1343 9.68731 10.035 9.66824 9.93496 9.66982C9.83493 9.67141 9.73631 9.69361 9.64526 9.73505C9.55421 9.77649 9.47269 9.83627 9.4058 9.91065Z" fill="black"/>
</svg>
