<svg width="15" height="13" viewBox="0 0 15 13" fill="none" xmlns="http://www.w3.org/2000/svg">
<path d="M10.6641 0C10.0708 0.000683411 9.48402 0.121751 8.93983 0.355735C8.39565 0.58972 7.90563 0.931659 7.5 1.36046C6.90556 0.732028 6.13413 0.295118 5.28584 0.106451C4.43756 -0.0822165 3.55161 -0.0139265 2.74301 0.302456C1.9344 0.618838 1.24049 1.1687 0.751346 1.88066C0.262204 2.59262 0.000428039 3.43379 0 4.29498C0 8.57138 6.96328 12.7689 7.26562 12.9337C7.33853 12.9771 7.42198 13 7.50703 13C7.59208 13 7.67553 12.9771 7.74844 12.9337C8.03672 12.7689 15 8.57138 15 4.29498C14.9988 3.15626 14.5415 2.06453 13.7287 1.25933C12.9158 0.454129 11.8136 0.00122906 10.6641 0ZM7.5 11.9888C6.28828 11.2227 0.9375 7.64274 0.9375 4.29498C0.938101 3.57991 1.16856 2.88361 1.59547 2.30698C2.02239 1.73036 2.62358 1.30337 3.31191 1.08791C4.00025 0.872441 4.73997 0.87969 5.42387 1.1086C6.10777 1.33752 6.70031 1.7762 7.11563 2.36108C7.15889 2.42192 7.21629 2.47156 7.28298 2.50583C7.34967 2.5401 7.4237 2.55798 7.49883 2.55798C7.57396 2.55798 7.64798 2.5401 7.71467 2.50583C7.78136 2.47156 7.83876 2.42192 7.88203 2.36108C8.297 1.77519 8.88968 1.33556 9.57402 1.10601C10.2584 0.876448 10.9988 0.868913 11.6877 1.08449C12.3767 1.30007 12.9784 1.72755 13.4054 2.30486C13.8324 2.88218 14.0626 3.57928 14.0625 4.29498C14.0625 7.64042 8.71172 11.2203 7.5 11.9888Z" fill="black"/>
</svg>
