<svg width="14" height="14" viewBox="0 0 14 14" fill="none" xmlns="http://www.w3.org/2000/svg">
<path d="M7 14C6.91625 14.0005 6.83323 13.9844 6.7557 13.9528C6.67816 13.9211 6.60764 13.8744 6.54818 13.8155L4.63909 11.9067C4.57945 11.8476 4.5321 11.7772 4.4998 11.6997C4.46749 11.6222 4.45086 11.539 4.45086 11.455C4.45086 11.371 4.46749 11.2879 4.4998 11.2103C4.5321 11.1328 4.57945 11.0624 4.63909 11.0033L6.54818 9.09454C6.60752 9.03522 6.67795 8.98816 6.75548 8.95606C6.833 8.92395 6.91609 8.90743 7 8.90743C7.08391 8.90743 7.167 8.92395 7.24452 8.95606C7.32205 8.98816 7.39248 9.03522 7.45182 9.09454C7.51115 9.15386 7.55822 9.22429 7.59033 9.3018C7.62244 9.37931 7.63897 9.46238 7.63897 9.54628C7.63897 9.63017 7.62244 9.71324 7.59033 9.79075C7.55822 9.86826 7.51115 9.93869 7.45182 9.99801L6.62455 10.8188H12.0909C12.2597 10.8188 12.4215 10.7517 12.5409 10.6324C12.6602 10.5131 12.7273 10.3513 12.7273 10.1825V3.82007C12.7273 3.65133 12.6602 3.4895 12.5409 3.37018C12.4215 3.25086 12.2597 3.18383 12.0909 3.18383H11.4545C11.2858 3.18383 11.1239 3.11679 11.0046 2.99748C10.8852 2.87816 10.8182 2.71633 10.8182 2.54758C10.8182 2.37884 10.8852 2.21701 11.0046 2.09769C11.1239 1.97837 11.2858 1.91134 11.4545 1.91134H12.0909C12.5972 1.91134 13.0828 2.11244 13.4408 2.47039C13.7989 2.82835 14 3.31384 14 3.82007V10.1825C14 10.6887 13.7989 11.1742 13.4408 11.5322C13.0828 11.8902 12.5972 12.0913 12.0909 12.0913H6.62455L7.45182 12.912C7.51146 12.9712 7.5588 13.0415 7.59111 13.1191C7.62342 13.1966 7.64005 13.2798 7.64005 13.3637C7.64005 13.4477 7.62342 13.5309 7.59111 13.6084C7.5588 13.686 7.51146 13.7563 7.45182 13.8155C7.39236 13.8744 7.32184 13.9211 7.2443 13.9528C7.16677 13.9844 7.08375 14.0005 7 14ZM2.54545 12.0913H1.90909C1.40277 12.0913 0.917184 11.8902 0.55916 11.5322C0.201136 11.1742 0 10.6887 0 10.1825V3.82007C0 3.31384 0.201136 2.82835 0.55916 2.47039C0.917184 2.11244 1.40277 1.91134 1.90909 1.91134H7.37545L6.54818 1.09058C6.48885 1.03126 6.44178 0.960833 6.40967 0.883325C6.37756 0.805816 6.36103 0.722743 6.36103 0.638848C6.36103 0.469415 6.42835 0.306922 6.54818 0.187114C6.66801 0.067307 6.83054 0 7 0C7.16946 0 7.33199 0.067307 7.45182 0.187114L9.36091 2.09585C9.42055 2.155 9.4679 2.22537 9.5002 2.3029C9.53251 2.38043 9.54914 2.46359 9.54914 2.54758C9.54914 2.63157 9.53251 2.71474 9.5002 2.79227C9.4679 2.8698 9.42055 2.94017 9.36091 2.99932L7.45182 4.90805C7.33199 5.02786 7.16946 5.09516 7 5.09516C6.83054 5.09516 6.66801 5.02786 6.54818 4.90805C6.42835 4.78824 6.36103 4.62575 6.36103 4.45632C6.36103 4.28688 6.42835 4.12439 6.54818 4.00458L7.37545 3.18383H1.90909C1.74032 3.18383 1.57846 3.25086 1.45911 3.37018C1.33977 3.4895 1.27273 3.65133 1.27273 3.82007V10.1825C1.27273 10.3513 1.33977 10.5131 1.45911 10.6324C1.57846 10.7517 1.74032 10.8188 1.90909 10.8188H2.54545C2.71423 10.8188 2.87609 10.8858 2.99543 11.0051C3.11477 11.1244 3.18182 11.2863 3.18182 11.455C3.18182 11.6238 3.11477 11.7856 2.99543 11.9049C2.87609 12.0242 2.71423 12.0913 2.54545 12.0913Z" fill="black"/>
</svg>
