<svg width="10" height="14" viewBox="0 0 10 14" fill="none" xmlns="http://www.w3.org/2000/svg">
<path d="M9.01188 13.8816L5 10.9644L0.988125 13.8816C0.894711 13.9495 0.78474 13.9899 0.670269 13.9983C0.555798 14.0068 0.441249 13.983 0.339181 13.9296C0.237113 13.8761 0.151469 13.7951 0.0916389 13.6954C0.0318088 13.5956 0.00010367 13.481 0 13.3642V0.63639C0 0.467609 0.0658481 0.30574 0.183058 0.186394C0.300269 0.067048 0.45924 0 0.625 0H9.375C9.54076 0 9.69973 0.067048 9.81694 0.186394C9.93415 0.30574 10 0.467609 10 0.63639V13.3642C9.9999 13.481 9.96819 13.5956 9.90836 13.6954C9.84853 13.7951 9.76289 13.8761 9.66082 13.9296C9.55875 13.983 9.4442 14.0068 9.32973 13.9983C9.21526 13.9899 9.10529 13.9495 9.01188 13.8816ZM5 9.54585C5.13031 9.54571 5.25736 9.58735 5.36313 9.66485L8.75 12.1277V1.27278H1.25V12.1277L4.63687 9.66485C4.74264 9.58735 4.86969 9.54571 5 9.54585Z" fill="black"/>
</svg>
